<?xml version="1.0" standalone="no"?>
<!DOCTYPE svg PUBLIC "-//W3C//DTD SVG 20010904//EN"
 "http://www.w3.org/TR/2001/REC-SVG-20010904/DTD/svg10.dtd">
<svg version="1.0" xmlns="http://www.w3.org/2000/svg"
 width="450.000000pt" height="450.000000pt" viewBox="0 0 450.000000 450.000000"
 preserveAspectRatio="xMidYMid meet">

<g transform="translate(0.000000,450.000000) scale(0.100000,-0.100000)"
fill="#000000" stroke="none">
<path d="M2750 3556 c-113 -20 -230 -52 -380 -103 -181 -61 -226 -81 -213 -94
7 -7 42 3 109 29 239 95 420 142 575 149 103 5 120 3 162 -15 36 -16 51 -30
62 -56 22 -52 19 -61 -24 -81 -51 -23 -96 -69 -87 -90 6 -16 64 -45 90 -45 8
0 27 11 42 24 23 19 28 33 30 72 l2 49 48 17 c67 23 145 23 174 0 35 -28 39
-112 10 -180 -21 -47 -77 -110 -126 -138 -34 -20 -4 -29 32 -9 83 44 133 135
134 237 0 60 -3 71 -28 99 -37 42 -101 49 -190 21 -58 -19 -64 -19 -68 -4 -27
89 -80 123 -197 128 -45 2 -116 -3 -157 -10z m340 -210 c0 -58 -50 -85 -96
-51 -19 14 -18 14 5 32 22 16 81 51 89 53 1 0 2 -15 2 -34z"/>
<path d="M1163 3368 c-25 -32 -303 -521 -303 -533 0 -31 40 -35 325 -35 288 0
325 4 325 36 0 19 -287 515 -308 532 -9 6 -19 12 -23 12 -3 0 -11 -6 -16 -12z
m176 -276 c78 -134 141 -248 141 -253 0 -5 -127 -9 -295 -9 -176 0 -295 4
-295 9 0 8 232 418 277 490 8 13 19 19 23 15 5 -5 72 -119 149 -252z"/>
<path d="M1065 3118 c-65 -112 -126 -218 -137 -235 l-20 -33 277 0 277 0 -14
23 c-8 12 -70 118 -137 235 -68 116 -124 212 -126 212 -2 0 -56 -91 -120 -202z
m145 -36 c0 -43 -3 -81 -6 -84 -3 -3 -14 -4 -25 -1 -17 5 -19 15 -19 84 0 78
0 79 25 79 25 0 25 -1 25 -78z m4 -124 c8 -14 7 -21 -6 -34 -30 -30 -75 9 -48
42 16 18 39 15 54 -8z"/>
<path d="M2263 3083 c-17 -25 -17 -26 26 -62 39 -33 42 -40 39 -76 l-3 -40
-51 -3 c-47 -3 -54 0 -78 28 -25 31 -31 54 -27 116 3 43 -17 57 -53 39 -16 -8
-37 -15 -47 -15 -23 0 -52 -42 -43 -63 3 -8 23 -19 45 -22 26 -5 45 -15 55
-30 27 -42 15 -56 -63 -76 -40 -10 -81 -23 -92 -28 -29 -16 -61 34 -70 110 -9
77 -20 87 -63 62 -19 -11 -46 -23 -61 -27 -17 -4 -29 -15 -33 -31 -10 -40 1
-55 41 -55 50 0 74 -15 92 -58 14 -34 14 -37 -2 -47 -9 -5 -37 -25 -62 -44
-41 -30 -47 -32 -69 -20 -14 7 -34 28 -45 46 -26 41 -53 43 -69 3 -7 -16 -18
-35 -26 -41 -19 -15 -18 -53 2 -70 13 -10 20 -10 44 4 27 16 70 23 70 11 0 -3
-20 -30 -45 -60 -25 -31 -52 -68 -62 -84 l-16 -29 -37 19 c-20 10 -49 37 -63
59 -33 49 -60 53 -77 12 -6 -16 -20 -37 -31 -47 -23 -21 -25 -57 -3 -78 19
-19 24 -20 49 -2 39 27 64 28 99 7 l34 -21 -24 -69 c-13 -38 -27 -93 -32 -122
-8 -53 -8 -54 -41 -51 -18 1 -46 9 -63 18 -47 24 -57 14 -57 -61 0 -61 2 -67
26 -78 23 -10 28 -9 37 8 17 30 54 65 68 65 20 0 42 -189 25 -209 -17 -20 -87
-51 -119 -51 -14 0 -33 -3 -42 -6 -17 -7 -22 -39 -7 -48 5 -3 18 -26 30 -51
20 -42 24 -46 54 -43 30 3 32 6 37 48 7 55 13 66 51 86 29 15 30 15 41 -17 6
-17 21 -50 33 -74 35 -64 607 -998 627 -1022 17 -21 63 -15 85 10 17 19 235
373 523 849 l83 137 29 -17 c16 -9 38 -31 49 -48 32 -52 46 -60 69 -39 11 10
20 22 20 28 0 5 11 22 25 39 30 35 30 39 6 69 -19 23 -19 23 -55 6 -43 -20
-75 -21 -98 -3 -16 11 -15 18 9 89 23 68 29 77 51 77 14 0 45 -12 69 -26 50
-29 73 -26 73 10 0 14 5 37 10 52 8 20 7 32 -5 50 -20 32 -35 30 -65 -5 -25
-30 -36 -34 -76 -32 -19 1 -20 6 -16 89 2 51 -3 117 -11 160 -13 68 -13 73 4
82 24 13 74 15 130 6 53 -9 66 5 49 50 -6 14 -10 38 -10 53 0 31 -27 61 -54
61 -10 0 -24 -17 -36 -44 -21 -49 -43 -66 -89 -66 -25 0 -34 7 -50 39 l-20 38
22 21 c12 11 43 26 70 33 58 14 64 23 40 56 -10 14 -23 35 -30 46 -16 28 -39
40 -63 32 -16 -5 -20 -15 -20 -54 0 -35 -5 -53 -20 -66 -12 -11 -24 -15 -29
-9 -5 5 -30 35 -55 67 -45 56 -46 58 -33 90 15 35 79 97 101 97 7 0 21 9 31
20 18 20 18 21 -34 70 -29 28 -55 50 -56 50 -2 0 -16 -5 -30 -10 -29 -11 -29
-9 -9 -100 4 -20 -3 -33 -32 -63 -20 -20 -41 -37 -45 -37 -15 0 -139 82 -139
92 0 5 18 27 40 49 22 22 40 44 40 50 0 5 -15 16 -34 24 -19 8 -37 19 -41 25
-10 15 -52 12 -70 -6 -14 -15 -14 -19 5 -49 19 -31 26 -66 15 -77 -3 -3 -37 4
-75 15 -92 27 -98 47 -48 160 13 29 18 51 12 56 -5 5 -39 11 -77 14 -64 6 -68
5 -84 -20z m144 -593 c75 -35 142 -101 179 -177 38 -77 45 -193 16 -276 -55
-156 -187 -249 -352 -249 -102 0 -174 28 -249 98 -190 175 -147 484 83 601
101 51 218 52 323 3z m284 -202 c19 -44 19 -183 0 -200 -11 -11 -12 -4 -7 47
4 40 1 79 -9 118 -18 68 -18 67 -6 67 5 0 15 -15 22 -32z m-1061 -17 c0 -25
-14 -71 -21 -71 -10 0 -12 41 -3 64 6 17 24 22 24 7z m7 -252 c12 -57 37 -131
56 -170 19 -38 31 -71 26 -74 -28 -18 -119 225 -119 319 0 54 16 22 37 -75z
m863 -752 c0 -7 -6 -21 -13 -32 -19 -26 -30 -3 -11 23 17 25 24 28 24 9z m-57
-83 c6 -7 -78 -148 -99 -165 -27 -23 -14 13 34 92 46 77 53 85 65 73z"/>
<path d="M2120 2445 c-11 -13 -9 -19 8 -36 29 -27 27 -40 -10 -66 -33 -23 -48
-22 -48 3 0 19 -26 18 -34 -2 -10 -25 -7 -32 14 -39 20 -6 20 -7 2 -33 -10
-15 -22 -35 -25 -45 -5 -14 -11 -16 -26 -7 -31 16 -41 12 -41 -16 0 -23 3 -25
30 -19 27 6 30 4 30 -19 0 -25 -3 -27 -52 -30 -27 -2 -32 -15 -13 -36 l18 -20
20 21 20 21 28 -53 c16 -29 29 -54 29 -56 0 -1 -9 -3 -20 -3 -22 0 -26 -20 -8
-38 17 -17 38 -15 38 3 0 21 12 19 44 -6 24 -19 25 -22 11 -33 -15 -11 -14
-13 4 -30 24 -22 44 -12 35 16 -5 17 -3 20 11 15 9 -4 28 -7 42 -7 24 0 25 -2
19 -40 -7 -44 4 -51 39 -27 12 10 14 16 7 21 -26 16 -12 43 27 54 51 16 51 16
51 -12 0 -34 14 -39 36 -15 18 20 18 21 -5 38 -21 16 -21 18 -6 31 14 12 18
12 25 0 7 -12 12 -11 29 4 25 22 27 36 6 36 -20 0 -19 10 5 40 17 22 19 23 25
7 4 -9 13 -17 21 -17 13 0 15 5 18 43 1 6 -8 12 -19 12 -16 0 -19 6 -17 30 5
40 7 41 44 27 39 -14 54 -3 38 28 -9 16 -15 19 -23 11 -6 -6 -21 -11 -33 -11
-17 0 -24 8 -29 31 -8 35 4 49 43 49 27 0 28 11 2 35 -20 18 -21 18 -36 -3
-20 -28 -35 -27 -57 4 -19 25 -19 25 2 31 27 7 27 30 0 38 -21 7 -33 1 -35
-16 -1 -5 -2 -11 -3 -14 0 -3 -12 2 -26 11 -29 19 -32 36 -10 58 23 23 18 36
-16 36 -29 0 -30 -2 -24 -29 7 -34 0 -41 -37 -34 -23 4 -26 8 -17 24 7 15 6
21 -6 25 -25 10 -47 -4 -40 -26 5 -15 0 -21 -21 -26 -30 -8 -44 7 -44 49 0 30
-20 36 -40 12z m115 -295 c18 -20 13 -40 -9 -40 -19 0 -69 46 -63 58 9 14 53
3 72 -18z m125 16 c0 -2 3 -11 6 -19 3 -10 -3 -16 -21 -19 -28 -6 -40 5 -31
27 5 13 46 22 46 11z m-80 -96 c12 -6 28 -6 50 1 40 14 52 3 14 -12 -46 -18
-151 -19 -166 -2 -10 13 -7 14 24 8 22 -4 38 -3 42 4 9 13 12 14 36 1z"/>
<path d="M3502 2762 c-11 -9 -84 -128 -162 -265 -118 -205 -140 -250 -130
-262 11 -13 58 -15 319 -13 284 3 306 4 309 21 3 13 -193 368 -281 508 -17 27
-33 30 -55 11z m172 -264 c75 -130 136 -242 136 -248 0 -12 -566 -15 -573 -2
-3 4 56 113 132 242 163 282 152 264 161 253 4 -4 69 -115 144 -245z"/>
<path d="M3507 2698 c-52 -82 -248 -430 -244 -434 2 -2 122 -3 265 -2 l262 3
-129 223 c-71 123 -132 226 -134 229 -3 2 -12 -6 -20 -19z m43 -190 c0 -81 -8
-110 -29 -106 -13 3 -17 20 -21 81 -3 44 -3 81 -1 83 2 2 15 4 28 4 22 0 23
-4 23 -62z m-6 -134 c19 -19 4 -57 -21 -52 -26 5 -39 34 -24 52 17 20 26 20
45 0z"/>
<path d="M880 1932 c0 -26 37 -131 56 -159 14 -23 13 -26 -15 -58 -41 -47 -46
-87 -23 -160 11 -33 23 -67 26 -77 6 -12 0 -18 -24 -23 -17 -4 -49 -24 -71
-44 -34 -33 -39 -44 -39 -82 0 -77 90 -200 213 -293 71 -54 50 -16 -36 64
-135 127 -176 204 -143 269 15 29 79 71 108 71 7 0 35 -37 62 -82 67 -111 83
-128 122 -128 64 0 109 91 85 171 -19 62 -56 80 -161 78 l-85 -2 -20 39 c-12
25 -20 60 -20 96 0 49 4 61 27 84 l26 27 32 -26 c63 -53 161 -40 184 25 21 61
-46 85 -150 53 -27 -8 -52 -15 -56 -15 -9 0 -54 97 -67 148 -12 42 -31 58 -31
24z m280 -191 c0 -50 -90 -68 -137 -27 l-28 24 35 10 c19 6 56 11 83 11 40 1
47 -2 47 -18z m-23 -301 c18 -11 35 -31 39 -45 16 -64 -26 -149 -70 -143 -27
4 -141 189 -123 200 25 16 121 9 154 -12z"/>
<path d="M3072 1515 c-45 -20 -143 -115 -189 -184 -21 -31 -60 -83 -88 -116
-143 -169 -229 -332 -237 -454 -4 -54 13 -63 31 -16 17 49 95 124 169 163 56
30 66 32 95 23 18 -7 66 -47 108 -91 62 -65 82 -80 106 -80 17 0 37 7 44 16
11 13 10 22 -6 52 -25 45 -71 77 -144 98 -107 31 -99 34 75 28 147 -5 176 -4
203 11 38 19 56 57 41 86 -35 65 -167 66 -295 3 -231 -115 -292 -150 -342
-199 -62 -60 -66 -50 -20 55 39 88 96 175 179 272 64 74 94 92 283 169 44 18
92 45 108 60 32 32 36 78 9 102 -23 21 -85 21 -130 2z m88 -55 c0 -24 -25 -33
-40 -14 -10 11 -10 17 0 28 15 19 40 10 40 -14z m43 -434 c9 -22 -19 -42 -37
-26 -19 15 -10 40 14 40 10 0 20 -6 23 -14z m-125 -213 c-2 -10 -10 -18 -18
-18 -8 0 -16 8 -18 18 -2 12 3 17 18 17 15 0 20 -5 18 -17z"/>
<path d="M1512 1223 c-11 -16 -93 -156 -182 -312 -126 -220 -161 -288 -153
-300 9 -14 54 -16 363 -19 355 -2 380 0 380 33 0 17 -339 608 -354 617 -20 14
-34 8 -54 -19z m215 -300 c94 -164 169 -301 167 -305 -8 -12 -682 -10 -689 2
-3 6 64 133 151 283 182 317 182 317 192 317 4 0 84 -134 179 -297z"/>
<path d="M1389 913 l-155 -268 159 -3 c87 -1 228 -1 312 0 l155 3 -150 259
c-82 142 -153 263 -158 268 -5 5 -73 -102 -163 -259z m191 38 c0 -26 -3 -69
-6 -95 -6 -40 -10 -46 -30 -46 -23 0 -24 3 -24 64 0 35 -3 78 -6 95 -6 30 -6
31 30 31 l36 0 0 -49z m-6 -183 c21 -30 4 -60 -32 -56 -34 4 -44 45 -16 65 24
18 30 17 48 -9z"/>
</g>
</svg>
