<?xml version="1.0" standalone="no"?>
<!DOCTYPE svg PUBLIC "-//W3C//DTD SVG 20010904//EN"
 "http://www.w3.org/TR/2001/REC-SVG-20010904/DTD/svg10.dtd">
<svg version="1.0" xmlns="http://www.w3.org/2000/svg"
 width="626.000000pt" height="417.000000pt" viewBox="0 0 626.000000 417.000000"
 preserveAspectRatio="xMidYMid meet">

<g transform="translate(0.000000,417.000000) scale(0.100000,-0.100000)"
fill="#000000" stroke="none">
<path d="M2774 3116 c-68 -17 -165 -71 -303 -169 l-114 -82 54 -10 c59 -11 58
-9 79 -118 10 -51 15 -59 48 -76 20 -11 47 -29 59 -40 12 -12 25 -21 28 -21 3
0 5 19 5 41 0 33 7 49 35 80 19 21 37 50 41 65 6 25 9 26 55 20 78 -11 176 4
216 31 19 13 36 23 38 21 17 -24 39 -112 44 -183 7 -85 8 -88 20 -60 18 41 51
193 51 233 0 52 -15 72 -56 72 -31 0 -34 3 -29 20 19 59 -53 157 -132 179 -47
13 -74 13 -139 -3z"/>
<path d="M3475 3037 c-166 -56 -253 -159 -263 -314 -8 -119 52 -302 102 -311
15 -3 17 0 11 14 -49 117 -65 253 -37 321 l14 31 60 -39 c33 -21 76 -44 94
-51 28 -10 33 -16 28 -33 -6 -19 -5 -19 11 -4 15 15 23 15 68 3 29 -8 83 -14
120 -14 65 0 70 2 101 35 43 45 94 49 125 9 39 -49 17 -111 -46 -135 -23 -9
-25 -13 -19 -47 4 -20 7 -44 6 -52 -10 -85 -4 -118 33 -179 36 -57 38 -64 27
-92 -9 -22 -10 -36 -2 -53 8 -18 7 -29 -4 -45 -19 -26 -65 -51 -97 -51 -24 0
-65 37 -87 78 -10 21 -9 26 9 38 25 18 66 88 75 128 7 27 5 26 -26 -15 -111
-145 -274 -140 -379 14 -4 5 -16 4 -29 -3 -29 -15 -86 -15 -105 0 -7 6 -17 24
-20 40 -8 35 -25 40 -134 40 l-84 0 -35 -41 c-40 -46 -100 -78 -148 -79 -49 0
-130 28 -166 58 l-32 27 29 -39 c28 -37 93 -86 115 -86 5 0 10 7 10 15 0 19
14 19 30 0 7 -8 17 -12 23 -8 5 3 7 1 4 -4 -4 -6 0 -25 9 -42 21 -41 29 -138
15 -173 -15 -40 -56 -37 -115 8 l-48 36 -36 -35 c-54 -51 -79 -62 -108 -47
-32 18 -66 103 -72 182 -4 64 -3 68 27 98 23 23 31 41 31 66 0 32 -2 34 -27
28 -167 -36 -293 -80 -399 -139 -65 -37 -134 -104 -134 -132 0 -9 -11 -29 -25
-43 l-25 -26 40 -56 c22 -31 40 -59 40 -63 0 -3 -22 -33 -50 -66 -40 -48 -50
-67 -50 -97 0 -48 -14 -72 -32 -54 -6 6 -15 12 -20 12 -12 0 -134 -192 -181
-286 -112 -223 -102 -348 44 -566 161 -240 448 -471 530 -428 19 10 59 -5 59
-22 0 -5 9 -8 19 -8 20 0 58 43 110 124 38 61 38 73 5 88 -21 10 -25 17 -20
42 2 17 2 38 -2 47 -8 19 -97 115 -294 317 l-139 143 112 175 c61 96 115 176
118 178 4 3 7 -86 7 -197 1 -189 11 -291 34 -327 7 -12 16 -9 52 17 24 17 59
40 78 51 19 10 50 28 67 38 18 11 33 25 33 32 0 7 10 23 23 35 22 23 22 25 12
159 -5 75 -13 140 -17 144 -4 3 -24 8 -44 9 -95 6 -101 145 -7 145 37 0 97
-30 112 -57 6 -11 11 5 16 54 7 69 7 70 55 106 27 20 56 50 66 67 10 16 21 30
24 30 3 0 18 -25 34 -55 37 -71 114 -141 175 -159 l46 -13 3 -83 c2 -52 -3
-101 -12 -133 -8 -28 -12 -55 -9 -61 3 -6 3 -8 -1 -4 -4 4 -22 -10 -39 -29
-18 -20 -46 -42 -64 -49 -52 -22 -133 -18 -189 11 l-49 24 42 -39 c23 -22 54
-42 70 -45 49 -11 53 -14 70 -43 9 -16 30 -35 47 -42 90 -38 190 -91 225 -120
32 -25 45 -44 58 -88 l16 -57 13 55 c7 30 13 65 14 77 0 12 17 36 40 56 31 26
40 41 40 65 0 25 6 34 34 47 18 9 39 27 46 40 15 27 30 33 30 12 0 -8 9 -22
19 -31 18 -16 22 -16 57 -1 22 9 55 31 74 49 19 19 51 39 71 45 19 6 51 25 70
42 31 28 32 29 4 11 -71 -45 -145 -53 -210 -23 -91 42 -126 110 -133 259 -4
96 -3 102 15 102 31 0 116 47 150 82 18 18 45 59 61 90 l30 57 26 -39 c14 -21
45 -52 69 -69 43 -29 45 -32 52 -97 l7 -66 27 26 c55 53 131 53 151 0 20 -52
-15 -104 -71 -104 -15 0 -31 -6 -37 -12 -13 -16 -21 -80 -23 -186 -2 -99 2
-105 124 -180 45 -28 97 -63 115 -79 l33 -28 -167 -100 c-92 -55 -176 -109
-186 -119 -10 -11 -18 -33 -18 -48 0 -24 -5 -30 -31 -35 -17 -3 -33 -11 -36
-18 -4 -12 45 -165 67 -205 12 -23 40 -26 58 -8 10 10 17 10 32 0 84 -52 258
6 495 164 130 87 169 120 159 136 -5 7 -3 8 5 3 15 -9 63 33 54 48 -3 6 -1 7
5 3 11 -7 75 72 107 134 24 44 32 193 16 284 -15 87 -53 217 -102 351 -58 158
-213 468 -250 499 l-30 26 22 30 c17 22 23 45 23 84 1 60 -18 95 -71 132 l-30
20 20 28 c11 15 22 49 25 75 5 58 -15 85 -98 137 -33 20 -60 40 -60 43 0 3 9
20 20 36 29 44 26 91 -9 124 -30 28 -131 80 -196 101 -23 7 -58 31 -82 56 -64
66 -113 87 -213 91 -52 2 -100 -2 -125 -10z m222 -1115 c80 -41 123 -121 123
-226 0 -25 -4 -48 -10 -51 -6 -4 -10 7 -10 25 0 66 -78 163 -159 197 -84 37
-213 11 -285 -55 l-29 -27 19 33 c25 44 71 87 119 112 54 27 171 23 232 -8z
m-481 -346 c39 -16 42 -21 53 -73 6 -30 8 -60 5 -65 -4 -6 -9 -32 -13 -60 -6
-47 -8 -51 -43 -63 l-37 -12 -5 36 c-3 20 -8 68 -11 106 -3 39 -9 90 -12 114
-5 35 -3 43 8 39 8 -3 33 -13 55 -22z"/>
<path d="M2748 2723 c-33 -9 -19 -22 17 -16 21 3 41 1 50 -7 17 -14 34 -5 19
10 -12 12 -63 20 -86 13z"/>
<path d="M2922 2709 c-30 -11 -27 -15 11 -16 17 0 43 -4 57 -8 22 -7 23 -7 12
7 -16 20 -52 27 -80 17z"/>
<path d="M3827 2662 c-19 -21 -23 -72 -6 -72 6 0 9 7 5 15 -4 11 1 15 17 15
22 1 22 1 2 16 -19 14 -19 15 3 20 12 4 22 10 22 15 0 15 -26 10 -43 -9z"/>
<path d="M2754 2635 c-9 -23 3 -45 25 -45 25 0 34 14 26 40 -7 23 -43 27 -51
5z"/>
<path d="M2460 2631 c0 -6 12 -11 27 -11 21 0 24 -3 15 -12 -17 -17 -15 -31 5
-24 9 4 20 1 24 -6 4 -7 11 -9 15 -5 13 13 -32 62 -59 65 -15 2 -27 -1 -27 -7z"/>
<path d="M2903 2614 c-3 -8 1 -23 10 -31 21 -21 47 -9 47 22 0 20 -5 25 -25
25 -14 0 -28 -7 -32 -16z"/>
<path d="M3352 2594 c-12 -8 -22 -22 -22 -31 0 -14 4 -13 23 5 13 12 33 22 45
22 12 0 22 5 22 10 0 15 -43 12 -68 -6z"/>
<path d="M2598 2570 c2 -17 8 -30 13 -30 14 0 11 36 -4 49 -11 8 -13 5 -9 -19z"/>
<path d="M2878 2558 c9 -24 18 -36 20 -27 4 21 -15 69 -27 69 -5 0 -2 -19 7
-42z"/>
<path d="M3552 2588 c-16 -16 -15 -33 2 -47 22 -18 48 -2 44 28 -3 28 -27 38
-46 19z"/>
<path d="M3056 2540 c-8 -50 -1 -64 13 -26 6 14 18 26 26 26 9 0 13 5 10 11
-4 6 -9 8 -13 5 -3 -3 -10 2 -17 11 -10 14 -13 10 -19 -27z"/>
<path d="M3410 2515 c-15 -18 2 -45 30 -45 23 0 34 28 19 46 -15 18 -33 18
-49 -1z"/>
<path d="M3490 2459 c0 -24 4 -38 10 -34 6 3 10 22 10 41 0 19 -4 34 -10 34
-5 0 -10 -18 -10 -41z"/>
<path d="M3338 2394 c-4 -3 -4 -12 -1 -20 3 -8 -2 -17 -11 -20 -24 -9 -20 -26
4 -19 12 4 27 1 35 -5 20 -16 18 -3 -3 38 -10 18 -21 30 -24 26z"/>
<path d="M3560 1690 c-8 -5 -12 -11 -10 -13 10 -7 110 5 104 14 -7 12 -75 11
-94 -1z"/>
<path d="M2703 1653 c-28 -11 -10 -18 43 -19 48 0 53 2 38 13 -18 13 -58 16
-81 6z"/>
<path d="M3573 1584 c-3 -8 2 -23 11 -32 15 -15 17 -15 32 0 21 21 11 48 -16
48 -11 0 -23 -7 -27 -16z"/>
<path d="M3430 1565 c-11 -13 -11 -19 3 -32 21 -21 49 -9 45 19 -4 28 -30 35
-48 13z"/>
<path d="M3836 1554 c-9 -8 -15 -25 -15 -37 1 -18 2 -19 6 -4 3 13 10 16 26
11 19 -6 20 -5 8 10 -12 14 -10 16 13 16 14 0 26 5 26 10 0 16 -47 12 -64 -6z"/>
<path d="M2727 1553 c-13 -12 -7 -41 10 -47 21 -9 46 16 37 37 -6 17 -35 23
-47 10z"/>
<path d="M3489 1524 c-11 -30 -3 -46 11 -24 10 16 13 50 5 50 -3 0 -10 -12
-16 -26z"/>
<path d="M3768 1528 c-15 -23 -13 -98 2 -98 7 0 20 109 14 118 -1 1 -8 -8 -16
-20z"/>
<path d="M2874 1526 c-9 -24 4 -48 23 -44 12 2 18 12 18 28 0 29 -32 41 -41
16z"/>
<path d="M2455 1520 c-4 -6 5 -10 21 -10 24 0 25 -2 13 -17 -12 -15 -12 -16 3
-10 11 4 21 0 27 -11 9 -15 10 -15 11 4 0 37 -58 72 -75 44z"/>
<path d="M2563 1490 c4 -14 7 -42 7 -62 0 -21 4 -38 9 -38 5 0 11 17 13 38 4
27 0 44 -15 62 l-20 25 6 -25z"/>
<path d="M2844 1480 c3 -14 6 -28 6 -32 0 -5 5 -8 11 -8 12 0 2 39 -13 55 -7
7 -9 2 -4 -15z"/>
<path d="M3311 830 c-10 -31 -58 -447 -52 -453 5 -5 13 27 20 70 24 172 42
345 38 366 -2 12 -5 20 -6 17z"/>
<path d="M3153 342 c-29 -8 -53 -19 -53 -24 0 -5 29 -6 65 -2 l65 7 1 -49 c0
-27 4 -71 8 -99 6 -45 8 -40 15 59 10 137 7 140 -101 108z"/>
<path d="M4110 354 c-14 -3 -44 -7 -67 -10 -75 -9 -46 -24 47 -24 83 0 90 1
90 20 0 20 -11 22 -70 14z"/>
<path d="M2190 318 c0 -16 10 -18 85 -18 47 0 85 4 85 8 0 5 -38 13 -85 18
-78 9 -85 8 -85 -8z"/>
</g>
</svg>
